<svg id="svg" xmlns="http://www.w3.org/2000/svg" xmlns:xlink="http://www.w3.org/1999/xlink" version="1.1" width="400" height="510.83123425692696" preserveAspectRatio="xMidYMid meet" buffered-rendering="static" style="background: rgb(255, 255, 255);" viewBox="6.5 23 385 484.17"><g><path d="M 201.75 23.040950609195754 L 201 23 L 201.75 31.01038596343949 L 202.5 39.02077192687898 L 200.75 39.01038596343949 C 199.7875 39.00467368354777 197.9875 38.61623967901718 196.75 38.14719928670483 C 195.5125 37.678158894392496 193.825 35.86030127432741 193 34.107515686560205 C 191.83835648044564 31.639501117835295 190.87967978584965 30.929584268561634 188.75 30.960316399855365 C 187.2375 30.982142379934917 186 31.45 186 32 C 186 32.55 184.42779154704377 33.1125 182.50620343787506 33.25 C 180.58461532870635 33.3875 178.89711532870635 33.134114342205294 178.75620343787506 32.68692076045622 C 178.61529154704377 32.239727178707135 177.2625 32.35222717870713 175.75 32.93692076045622 C 173.59735094212084 33.769079496257966 173 34.65165557322273 173 37 C 173 38.65 172.2125 40.759516103235036 171.25 41.68781356274452 L 169.5 43.375627125489046 L 169.25 38.68781356274452 C 169.0387818657912 34.727208625778076 168.53461761050562 33.68974507367041 166 32 L 163 30 L 161.75 32.52881015726591 C 161.0625 33.919655743762156 160.1625 35.044655743762156 159.75 35.02881015726591 C 159.3375 35.012964570769654 158.775 34.55 158.5 34 C 158.225 33.45 156.3125 32.992995168009976 154.25 32.98443370668883 C 152.11569901131438 32.975574198634376 148.1364236866546 34.16042014026492 145.014194096192 35.73443370668883 C 141.2150744497428 37.64968871620035 139.32407422817104 39.26865928495027 138.8638741215426 41 C 138.49839138257985 42.375 138.14312884614324 46.875 138.0744018183501 51 C 137.98129922109726 56.58802302383842 137.50975980486575 58.97402812732125 136.2247217929995 60.359442346448475 C 134.89687705785587 61.79100698490575 134.38494461557025 64.66739159564975 134 72.85944234644847 L 133.5 83.5 L 115 84.10987692649238 C 98.97967938142145 84.6380079481292 95.32717867094931 85.07362729891945 87.75 87.35987692649238 C 82.9375 88.81194461692156 78.775 90 78.5 90 C 78.225 90 78.26169384078617 93.0375 78.5815418684137 96.75 C 78.90138989604121 100.4625 79.8490522902285 108 80.687458299941 113.5 C 81.5258643096535 119 83.31032665765001 126.425 84.6529301843777 130 C 85.99553371110538 133.575 89.03981171425423 140.1 91.41799241359736 144.5 C 94.21345780373304 149.6720408461789 95.96431315328013 154.35584819469508 96.37097866074697 157.75 L 97 163 L 83.75 162.3791125173718 L 70.5 161.7582250347436 L 68 158.78252536925163 C 66.625 157.14589055323108 64.10195802702 153.26278992041378 62.39324006004446 150.15341285187986 C 59.69182661267608 145.2376144648915 58.77851966172103 144.3902536280051 55.39324006004446 143.65885387365 C 52.30016811880549 142.99058645582596 50.472362214422056 143.26312102391324 46.5 144.98487833436988 C 43.75 146.1768221572583 40.825 147.93766076581525 40 148.89785302005194 C 39.17137242260592 149.86226730061037 36.262091924646924 150.96494956197986 33.5 151.36149813915608 C 30.75 151.75631070042667 27.15 152.94770635166188 25.5 154.00904403078988 C 23.771528242807662 155.12085748728495 20.698668322689148 155.95172931878122 18.25 155.96937445096586 C 15.912500000000001 155.98621850293463 12.866838768727838 156.5625 11.481863930506307 157.25 C 10.096889092284776 157.9375 8.409389092284776 159.85 7.731863930506307 161.5 C 7.024735129863377 163.2220947455267 6.5 168.9726683906565 6.5 175 L 6.5 185.5 L 12.1938833353354 195.5 C 15.589860753674934 201.46425535673447 19.32292454869554 206.609829776898 21.4438833353354 208.25 C 23.39974750090093 209.7625 25 211.675 25 212.5 C 25 213.325 27.5875 216.7260973666307 30.75 220.05799414806822 C 33.9125 223.38989092950573 38.3 226.98348302188433 40.5 228.04375435335396 C 43.34272727281082 229.41378263996677 46.66988636347971 229.97615756730787 52 229.9875482893158 L 59.5 230.00357616806014 L 62.5 234.6538903407482 C 64.15 237.21156313572666 66.625 240.1033220084088 68 241.08002116893073 C 69.375 242.05672032945267 72.525 243.58064084279079 75 244.46651119857097 C 77.475 245.35238155435113 82.65 246.34882724850564 86.5 246.6808349633588 C 90.9791638772825 247.06709910968326 95.48065695356375 246.80043500253228 99 245.9403470223797 C 102.90049977117546 244.98710861239493 105.66327289369057 243.4833431295305 108.5 240.76953803673027 C 110.7 238.66486917701468 113.2875 236.955722221594 114.25 236.97143369135097 C 115.41775845873144 236.99049571909933 115.84831094500457 237.58224154126856 115.54407951438225 238.75 C 115.29332324729248 239.7125 114.40408115820124 244.55 113.56798598306835 249.5 C 112.73189080793547 254.45 112.04066949994044 259.85 112.03193863196825 261.5 C 112.02320776399606 263.15 112.00716580926415 269.225 111.9962898436751 275 C 111.98541387808605 280.775 111.7567994046091 286.7375 111.48825768039296 288.25 L 111 291 L 106.75 291.00658920570265 C 104.40044211927356 291.01023196339355 101.31316269425396 291.7927669536827 99.84584994814327 292.75658920570265 C 98.38606741962207 293.7154651425662 96.28309634672027 295.625 95.17258089725038 297 C 94.06206544778051 298.375 92.43464562332802 301.525 91.55609239846707 304 C 90.67753917360612 306.475 89.98776201733413 310.525 90.02325427341819 313 C 90.05874652950224 315.475 90.63053387729028 319.1753026443157 91.29389282405825 321.22289476514607 L 92.5 324.94578953029213 L 89.24122646237535 328.22289476514607 C 87.44890101668179 330.02530264431573 85.42390101668178 332.75535762006507 84.74122646237535 334.2896836001446 C 84.0585519080689 335.82400958022413 83.1625 337.06150958022414 82.75 337.0396836001446 C 82.3375 337.01785762006506 79.92350376326655 338.9125 77.38556391837011 341.25 C 74.84762407347367 343.5875 72.07752567815865 346.85 71.22978970655895 348.5 C 70.38205373495924 350.15 69.08889096561663 353.75 68.35609466357536 356.5 C 67.6232983615341 359.25 67.01249718261772 365.325 66.99875871042788 370 C 66.98453220576978 374.84107027022543 67.63052424569383 380.6523116057498 68.49945228611254 383.5 C 69.33857222492895 386.25 70.80697179916035 389.29015373271164 71.76256245107119 390.2558971838036 C 72.71815310298203 391.22164063489555 73.275 392.1473394153092 73 392.31300558472276 C 72.725 392.4786717541363 70.7 393.99322131092066 68.5 395.67867126646576 C 66.3 397.36412122201085 63.28915940470465 400.9384224415972 61.80924312156587 403.6215628655466 C 60.24174870294224 406.46348553836424 58.626217982533895 411.63089172645033 57.93926566412128 416 C 57.28818683732097 420.1409480871678 57.034868956225964 426.63511511864334 57.37366437021015 430.5 C 57.87627591432589 436.23365422868125 58.451808821131486 437.95226634689953 60.555046926921875 440 L 63.12281019853427 442.5 L 50.98483264970292 450 C 44.308944997845686 454.125 37.418812703175476 458.6739252457202 35.67342755043579 460.1087227682671 C 33.60801345138506 461.8066007568015 31.62711615928265 465.04003713329257 30 469.36950932903613 L 27.5 476.02157312153804 L 30 478.6466218952547 C 31.375 480.09039872079893 34.3 482.07503395668425 36.5 483.0569224194443 C 38.7 484.0388108822043 43.9875 485.55268498168573 48.25 486.4210870849586 C 52.5125 487.28948918823136 59.9375 487.99792749217613 64.75 487.99539442705805 C 69.5625 487.99286136193996 79.35 487.12374321761035 86.5 486.06402077299225 C 93.65 485.00429832837415 106.475 482.76394219611325 115 481.08545159019025 C 123.525 479.40696098426724 135.45 476.6693059519853 141.5 475.0017737406748 C 147.55 473.3342415293643 154.4125 471.30167016944904 156.75 470.4849484964187 L 161 469 L 160.50377651342578 463.25 C 160.23085359580995 460.0875 159.50084188921278 443.55 158.88152827654318 426.5 C 158.2206602079296 408.3059859506549 158.0426905811804 383.93330301231174 158.45070956016446 367.5 C 158.83307287882576 352.1 159.22558458542292 338.6190625616007 159.32295779704705 337.5423612480016 C 159.44851527725606 336.15401324531786 158.2832059706606 334.99079403802835 155.31577050408328 333.5423612480016 L 151.13154100816658 331.5 L 153.3862700333566 329 C 154.62637099721113 327.625 155.9870906242012 324.7 156.41009142666786 322.5 C 156.83309222913454 320.3 156.92979459922378 317.15 156.62498558242177 315.5 C 156.32005887598112 313.8493629194248 154.4076857396154 310.9257432606711 152.37326106375582 309 L 148.67573475745718 305.5 L 153.5878673787286 281.7732077856017 L 158.5 258.0464155712034 L 162.5 257.46557013634543 C 164.7 257.14610514717356 166.54849469858678 257.02316164365277 166.6077659968595 257.19236235074374 C 166.66703729513225 257.3615630578347 170.1232161223427 265.825 174.28816339066054 276 C 178.4531106589784 286.175 182.34211596039162 295.7375 182.93039739380106 297.25 C 183.88695667357814 299.7093601437969 183.6036729233594 300.4864424700905 180.25 304.60266121179893 L 176.5 309.2053224235979 L 177.31585290376796 314.35266121179893 C 177.76457200084033 317.18369754530954 179.00207200084034 321.4125 180.06585290376796 323.75 C 181.16365018789284 326.1622459282544 183.40534134898195 328.8632090606356 185.25 329.99626193956226 C 187.80971380023686 331.56852631974226 188.07520849245347 331.9897106600049 186.5 331.97927870322246 C 185.4 331.9719938564764 183.72510192401123 332.53617598367333 182.77800427558049 333.2330167636602 L 181.05600855116097 334.5 L 184.00950677673333 346 C 185.63393080079814 352.325 188.74129688399125 365.375 190.91476473938474 375 C 193.08823259477822 384.625 195.78468691964662 398.125 196.90688546131452 405 C 198.0290840029824 411.875 199.62071903820816 424.925 200.44385220626066 434 C 201.26698537431312 443.075 202.24881646176175 456.35 202.62569906725759 463.5 L 203.31094016815914 476.5 L 209.71785802272203 483.5 C 215.1120862827806 489.3935667160955 218.4463277123939 491.8172090590823 230.81238793864247 498.83350148419095 L 245.5 507.16700296838184 L 258.5 506.59772993544505 C 265.65 506.28462976732976 274.875 505.3494514673487 279 504.5195559354871 C 283.125 503.6896604036255 290.1 501.84414821779984 294.5 500.4184177447635 C 298.9 498.99268727172716 306.1 495.9527899038223 310.5 493.6630902605305 L 318.5 489.5 L 318.3926314730615 486.5 C 318.33357878324534 484.85 317.51275473877695 479.9 316.5685780409096 475.5 L 314.8518931356962 467.5 L 305.1759465678481 458.2976785233352 C 299.8541759555316 453.23640171116955 295.725 448.9614017111696 296 448.7976785233352 C 296.275 448.63395533550084 297.4 448.00849159120037 298.5 447.40775909155633 C 299.6 446.8070265919123 301.0460879575075 445.2320265919123 301.7135287944611 443.90775909155633 C 302.38096963141476 442.58349159120036 303.4285573780235 438.8 304.0415015647029 435.5 C 304.87033791200105 431.03766883588276 304.85965105815023 427.8341920944604 303.99980134836983 423 C 303.3639220427073 419.425 301.5288342960985 412.3375 299.92182857812804 407.25 C 297.4773195177442 399.51111039579285 296.2240243913496 397.1868286336696 292.25 393.02231262553823 L 287.5 388.0446252510764 L 282 387.94623470003484 L 276.5 387.84784414899326 L 280 386.58321232400965 C 282.142098470116 385.8092220675647 284.27594373136225 383.99587180027396 285.5 381.909290249513 C 287.211504520026 378.99178241345203 287.5 376.69690325016234 287.5 366 C 287.5 358.70603702457333 286.92593908922237 351.20934370918775 286.1216461099201 348 C 285.3635514703762 344.975 283.5635514703762 340.0857839858998 282.1216461099201 337.1350755242218 C 280.6797407494641 334.1843670625438 277.1375 329.5718670625438 274.25 326.8850755242218 L 269 322 L 263.75 322.6189378455548 L 258.5 323.2378756911096 L 257.25 320.1189378455548 C 256.5625 318.40352203049963 254.21627806043037 315.0875 252.03617346762303 312.75 C 249.45588586635506 309.98342527332727 248.05972090322354 307.5401365878471 248.03617346762303 305.75 C 248.01627806043038 304.2375 247.45236900824546 300.8625 246.78304224054546 298.25 C 246.03172841748588 295.31749011474926 244.30989567719712 292.2564541320137 242.28304224054546 290.25 C 240.47736900824546 288.4625 237.9875 286.9856884826581 236.75 286.968196628129 C 235.5125 286.9507047736 233.6 286.2680623172477 232.5 285.4512133917906 C 231.4 284.6343644663334 228.475 283.9780357797545 226 283.9927051993931 L 221.5 284.0193768714631 L 212.7064744256615 255.25968843573156 L 203.91294885132302 226.5 L 205.9564744256615 224.75 C 207.47172633400527 223.45239410120425 208.19388318623038 221.18740533357598 208.75 215.98832443261705 C 209.1625 212.13190287055642 209.95 208.98730275147315 210.5 209.00032416798757 C 211.05 209.013345584502 215.55 203.77760284404502 220.5 197.36534030030543 C 225.45 190.95307775656582 229.725 185.33991980774212 230 184.8916559695861 C 230.275 184.44339213143013 235.225 182.73588224943214 241 181.09718956514618 L 251.5 178.11774832098988 L 255.68380556744603 173.30887416049495 L 259.86761113489206 168.5 L 262.68380556744603 171.5208002980455 C 264.2327125053507 173.1822404619705 267.1875 175.7697404619705 269.25 177.2708002980455 L 273 180 L 271.0487205817974 183.25 C 269.975516901786 185.0375 268.3959172898876 190.55 267.5384992220232 195.5 C 266.68108115415873 200.45 265.9841568923499 207.0875 265.9897786402257 210.25 L 266 216 L 271.75 220.63506799490548 C 274.9125 223.1843553921035 279.6209251802337 226.4468553921035 282.2131670671861 227.88506799490548 C 286.32188994528 230.16464578216318 287.31486629946534 231.39772105748227 289.9559223711457 237.5 C 291.6221959013711 241.35 294.2262707211373 245.72898876109306 295.7427553039596 247.23108613576238 C 297.2592398867818 248.73318351043167 300.975 250.9388141560582 304 252.132487570488 C 308.1315365696861 253.76280339329088 312.36133262702003 254.41531586860555 321 254.75500457366968 C 329.72502790913325 255.09808913800563 334.0684624861421 254.8007002986902 339 253.5225699616663 C 342.575 252.59601998774434 348.2 250.54926444201413 351.5 248.97422430448808 C 354.8 247.39918416696204 359.47646918114236 244.62314909673702 361.8921537358719 242.8052574817658 C 364.3078382906014 240.98736586679462 367.4450662487023 237.475 368.86377142054044 235 C 370.85117173871936 231.53288372726547 371.41447253909655 229.23758655556443 371.3179233592185 225 L 371.1926113490999 219.5 L 376.09630567454997 215.75 C 378.7933375535475 213.6875 382.54650035502027 209.6375 384.4366674556006 206.75 C 386.326834556181 203.8625 388.6522382279702 198.575 389.6042311706878 195 C 390.7519273065627 190.69007972470868 391.3629031280463 184.47084790020452 391.41756371508717 176.54176471148588 L 391.5 164.58352942297176 L 387 163.29110368032485 L 382.5 161.9986779376779 L 379.75 155.99933896883897 C 377.4759603996693 151.0383446448583 376.43750134584536 149.84246781980434 373.75 149.08981189225196 C 371.9625 148.58920843299055 369.2625 147.91420843299053 367.75 147.58981189225196 C 366.2375 147.26541535151338 365.225 146.55 365.5 146 C 365.775 145.45 365.37452573862623 143.7625 364.6100571969472 142.25 C 363.84558865526816 140.7375 361.03308865526816 137.44308086477693 358.3600571969472 134.9290685883932 C 355.68702573862623 132.41505631200945 352.375 129.78190060669849 351 129.07761146547992 C 349.625 128.37332232426135 347.4875 128.06774145948444 346.25 128.39854287708673 C 345.0125 128.729344294689 340.0625 132.83261958029428 335.25 137.51693240065393 C 328.5331865246239 144.05483483694877 325.8609985208325 146.02993031801196 323.75 146.01693240065393 C 321.63284066524704 146.00389654970692 321.10197570393774 145.5972832130246 321.44313395334564 144.25 C 321.68685762768575 143.2875 322.18032783493953 138 322.5397344139097 132.5 C 322.93463701373213 126.4568042820827 322.72434385160483 119.13671636022971 322.00826217738904 114 C 321.35654586833255 109.325 319.6859886191752 101.9 318.29591273481714 97.5 C 316.9058368504591 93.1 313.75409277703284 85.45 311.29203701609214 80.5 C 308.82998125515144 75.55 305.1695682970549 69.28403579446984 303.15778599809994 66.57563509882189 C 301.146003699145 63.86723440317392 297.025 59.47250298862944 294 56.80956528872303 C 290.975 54.14662758881662 287.9375 51.975091794346774 287.25 51.983930189901145 C 286.5625 51.992768585455515 282.7375 53.330501477281416 278.75 54.956669949514264 C 274.7625 56.582838421747105 270.6 58.84750605274286 269.5 59.98926468506038 C 268.4 61.131023317377895 267.1625 62.05052184009647 266.75 62.03259473554611 C 266.3375 62.01466763099575 266 61.325 266 60.5 C 266 59.675 265.48626787537904 57.9875 264.85837305639785 56.75 C 264.17470101185364 55.40257025611994 263.8106268621016 50.488576639466956 263.9507796237673 44.5 L 264.1848131347389 34.5 L 260.84240656736944 31.62842419198648 C 259.0040829553162 30.049057497579042 256.15 28.076214712708868 254.5 27.2443291144972 C 252.85 26.412443516285535 248.93874268659567 25.45465262989162 245.80831708132374 25.115904922510722 L 240.11663416264747 24.5 L 239.05831708132374 27.25 C 238.47624268659567 28.7625 237.9950474512535 31.6875 237.9889943361189 33.75 C 237.98294122098432 35.8125 237.6454412209843 39.20180977536578 237.2389943361189 41.281799500812845 C 236.8325474512535 43.36178922625991 235.825 45.25478907650669 235 45.48846583469458 C 234.175 45.72214259288247 232.9375 47.95783281751669 232.25 50.456666333881735 C 231.5625 52.95549985024678 230.4375 59.46192864001251 229.75 64.91539697780557 L 228.5 74.83079395561114 L 224.5 75.3464499377823 C 222.3 75.63006072797644 220.275 75.6248615926701 220 75.3348963037682 C 219.725 75.04493101486632 219.275 71.44153014013509 219 67.32733880436547 C 218.60140812122722 61.36412697107414 218.09436751509114 59.550253685663556 216.5 58.383906742615835 C 215.16845020243653 57.40982202174445 214.87296623373487 56.683385281436664 215.61591329429 56.21041128204185 C 216.40556077814446 55.70770691940309 215.82080959343327 51.59288331753061 213.61591329429 42.13665235873239 L 210.5 28.77330471746479 L 206.5 25.927602967928152 C 204.3 24.362467005682998 202.1625 23.06347344425342 201.75 23.040950609195754 Z " class="odd" fill="#000000"></path><path d="M 245.25 27.601492887547245 C 247.0375 27.93231397569823 250.525 29.16981397569823 253 30.351492887547245 C 256.18890756638393 31.874024129176185 257.4791890089902 33.08270774827382 257.42857142857144 34.5 C 257.3892857142857 35.6 257.27392672457455 39.2 257.17221811810225 42.5 L 256.98729337906167 48.5 L 249.24364668953083 48.2403331090197 L 241.5 47.98066621803941 L 246 49.462694910805055 C 248.475 50.27781069182617 251.95027217524617 51.7446607927673 253.72282705610257 52.722361801785354 C 256.0669674195324 54.01533637953041 256.82666814728066 55.04528938560879 256.5092400976846 56.5 C 256.2692123896983 57.6 255.3243269395619 62.325 254.40949465293704 67 C 253.49466236631218 71.675 252.12827649760027 76.5125 251.37308161135502 77.75 L 250 80 L 244.5 77.5 C 241.475 76.125 237.3125 74.73414011943963 235.25 74.40920026542139 L 231.5 73.8184005308428 L 232.27441964320218 64.65920026542139 C 232.70035044696337 59.62164011943963 233.48785044696336 53.8125 234.02441964320218 51.75 L 235 48 L 238.75 47.984687225482936 C 240.90169339433004 47.975900986609005 241.92983509582595 47.65623966547501 241.16226018020086 47.234687225482936 C 240.15804349793996 46.6831710358963 239.9208729742025 44.38079368864062 240.2109844875216 38 C 240.42353975743757 33.325 240.9130226763472 28.9375 241.29872430732075 28.25 C 241.75420293008173 27.438124892400026 243.13912472024006 27.210823205308813 245.25 27.601492887547245 Z " class="even" fill="#ffffff"></path><path d="M 154.25 35.04389282405782 C 154.6625 35.01975177082602 155 38.375 155 42.5 L 155 50 L 152.75 50.68333628723501 C 151.5125 51.05917124521426 148.025 52.67600244398654 145 54.276294506728966 L 139.5 57.18591643898792 L 140.24130790477483 51.84295821949396 C 140.64902725240097 48.90433119877228 140.98652725240098 45.2625 140.99130790477483 43.75 C 140.99733449925364 41.84330956605447 141.84330956605447 40.4674214378528 143.75 39.26328183047054 C 145.2625 38.30808683722934 148.075 36.97783860805536 150 36.30717465452836 C 151.925 35.63651070100136 153.8375 35.06803387728962 154.25 35.04389282405782 Z " class="even" fill="#ffffff"></path><path d="M 184.75 35.95547464893012 C 187.53812657304803 35.9936722841585 188 36.355287251501515 188 38.5 L 188 41 L 183.25 40.90031997464938 C 179.37851830672813 40.819075891843106 178.9623780561727 40.652560611918375 181 40 L 183.5 39.19936005070124 L 181 39.1442053764205 C 178.7533791412353 39.09464071974151 178.65202748474118 38.92799778122475 180 37.5 C 180.825 36.626022113823126 182.9625 35.930985705841685 184.75 35.95547464893012 Z " class="even" fill="#ffffff"></path><path d="M 185.25 42.07028526261038 C 186.7625 42.03162836817467 188 42.45 188 43 C 188 43.55 185.8625 43.96837163182533 183.25 43.92971473738962 C 179.67603556312628 43.87683115233576 178.99517286868473 43.64664639554991 180.5 43 C 181.6 42.52731378887142 183.7375 42.10894215704609 185.25 42.07028526261038 Z " class="even" fill="#ffffff"></path><path d="M 185.25 45.07028526261038 C 186.7625 45.03162836817467 188 45.45 188 46 C 188 46.55 185.8625 46.96837163182533 183.25 46.92971473738962 C 179.67603556312628 46.87683115233576 178.99517286868473 46.64664639554991 180.5 46 C 181.6 45.52731378887142 183.7375 45.10894215704609 185.25 45.07028526261038 Z " class="even" fill="#ffffff"></path><path d="M 186.75 48.168103113655036 C 187.4375 48.075646401144766 188 48.45 188 49 C 188 49.55 185.7497202734507 50.1125 182.99937838544597 50.25 C 180.24903649744124 50.3875 177.99903649744124 50.1625 177.99937838544597 49.75 C 177.9997202734507 49.3375 179.6875 48.850646401144765 181.75 48.668103113655036 C 183.8125 48.485559826165314 186.0625 48.26055982616531 186.75 48.168103113655036 Z " class="even" fill="#ffffff"></path><path d="M 239.5 54 C 237.72222222222223 54 236.56666666666666 54.86666666666667 235.5 57 C 234.675 58.65 233.99235754364744 62.1375 233.983016763661 64.75 C 233.97367598367458 67.3625 234.53617598367458 70.35509679174488 235.233016763661 71.4002150927664 C 236.05369253542133 72.63106049232574 237.11645493058734 73.07138544274528 238.25 72.6502150927664 C 239.2125 72.29259679174488 240.67429234084705 70.9875 241.49842742410456 69.75 C 242.32256250736208 68.5125 243.05771609602482 65.475 243.13210206557733 63 C 243.20648803512984 60.525 242.98219569428278 57.4875 242.63367464147277 56.25 C 242.19310082004137 54.6856465710594 241.23817047660066 54 239.5 54 Z " class="odd" fill="#000000"></path><path d="M 153.25 55.10335244694605 C 154.55980737710948 55.02599713411619 154.8776653596617 55.565961943716374 154.51365468329243 57.25 C 154.2461647591033 58.4875 154.0211647591033 59.8375 154.01365468329243 60.25 C 154.0061446074816 60.6625 153.325 61 152.5 61 C 151.675 61 150.4905447733174 62.0125 149.86787727403868 63.25 C 149.24520977475996 64.4875 148.90770977475995 67.67573719502252 149.11787727403868 70.33497154449448 C 149.4215748297845 74.17763501463907 149.140837776576 75.35773946303215 147.75 76.08497154449448 C 146.48964364504755 76.74397836098517 145.8601018157007 76.5803054471021 145.5 75.5 C 145.225 74.675 144.1 74 143 74 C 141.9 74 140.55 74.9 140 76 C 139.45 77.1 139 78.9 139 80 C 139 81.1 138.4375 81.99790752769258 137.75 81.99535006153906 C 136.81843966926337 81.9918847029706 136.57751554857788 79.6354311504216 136.80427878519808 72.74535006153906 L 137.10855757039616 63.5 L 140.80427878519808 60.24791307097662 C 142.83692545333915 58.459265260013765 146.075 56.59327386113949 148 56.10126551792267 C 149.925 55.60925717470586 152.2875 55.16019629276638 153.25 55.10335244694605 Z " class="even" fill="#ffffff"></path><path d="M 194.11927221450856 57.229955400761696 C 197.62867249652885 57.631430871180626 200.725 58.2165036368155 201 58.53011710217253 C 201.275 58.84373056752956 201.05 59.80803573601753 200.5 60.673017476590246 C 199.95 61.537999217162955 198.825 62.68888178624104 198 63.230534296763764 C 196.9473814133237 63.92162944839539 195.31121008682814 63.66129648151037 192.5141731045329 62.35767852158436 C 190.2242018674746 61.290389225361515 188.36032714390765 59.64905704493217 188.13344531904144 58.5 L 187.7385444290171 56.5 L 194.11927221450856 57.229955400761696 Z " class="even" fill="#ffffff"></path><path d="M 209.5 56.93422093580728 C 210.6 56.94702033667816 212.85 58.32001150058631 214.5 59.98531241115873 C 216.51579065945117 62.01979606007232 217.17193021981706 63.349102278359055 216.5 64.03721325233182 C 215.8210359233128 64.73252746550853 213.81703396636937 64.16860663793982 210.2577018289294 62.280647128050255 C 206.02380739127008 60.034882765863834 205.25437101012253 59.25098627464225 206.2577018289294 58.20547464893012 C 206.94096582301825 57.49348570584168 208.4 56.92142153493641 209.5 56.93422093580728 Z " class="even" fill="#ffffff"></path><path d="M 175.25 58.10335244694605 C 175.6625 58.04650860112572 175.99776478477688 58.5625 175.99503285505975 59.25 C 175.99230092534262 59.9375 174.89756482545988 61.85 173.56228596643143 63.5 C 171.54855430531256 65.98836205140233 170.8245810047484 66.31203657444172 169.3172531113717 65.39787245410471 C 168.31776390011726 64.79170230386232 167.3875 63.32920230386232 167.25 62.14787245410472 C 167.04842110836216 60.41600945939323 167.72631662543245 59.82633332668363 170.75 59.10335244694605 C 172.8125 58.61019629276638 174.8375 58.16019629276638 175.25 58.10335244694605 Z " class="even" fill="#ffffff"></path><path d="M 162.75 63.02223584558881 C 164.20836987065525 63.04076618116325 164.11570616088298 63.33239631050802 162.19394808428814 64.77223584558881 C 160.53175248385344 66.01760328787581 159.65917533252355 68.03561578986876 159.06870388975915 72 L 158.24951161094202 77.5 L 158.11702377726095 72.5 C 158.03758529613546 69.50204619102107 158.58824577641155 66.59907921404051 159.49226797178994 65.25 C 160.32152058730549 64.0125 161.7875 63.01000613051497 162.75 63.02223584558881 Z " class="even" fill="#ffffff"></path><path d="M 179.78124749848666 72.4258498395244 C 179.93593362265435 76.31663242778599 179.82343362265436 80.0625 179.53124749848666 80.75 C 179.2184015918759 81.48611148170568 177.15000133414043 82 174.5 82 L 170 82 L 170 77.5 C 170 75.025 169.775 72.325 169.5 71.5 C 169.14959163904797 70.44877491714388 170.57071221000356 69.30465313620176 174.25 67.6758498395244 L 179.5 65.35169967904882 L 179.78124749848666 72.4258498395244 Z " class="even" fill="#ffffff"></path><path d="M 200.25 70.32832794038913 C 200.9375 70.50890830760316 201.64651048023845 71.52140830760317 201.82557884497433 72.57832794038913 C 202.0046472097102 73.6352475731751 201.4421472097102 74.8375 200.57557884497433 75.25 C 199.32493568389174 75.84532556799925 199 75.38130227199699 199 73 C 199 71.09155843179246 199.45481601324687 70.11946304390827 200.25 70.32832794038913 Z " class="even" fill="#ffffff"></path><path d="M 207.25 75.14983209117969 C 210.04473379680334 75.03816787542887 211.63684413546443 75.63684413546444 213.5 77.5 C 214.875 78.875 216 80.9 216 82 C 216 83.1 215.55 84 215 84 C 214.45 84 214.01157138824198 83.2125 214.02571419609325 82.25 C 214.03985700394452 81.2875 213.02735700394453 79.52353450004456 211.77571419609325 78.33007666676569 C 210.52407138824196 77.13661883348682 208.15 75.96654327451768 206.5 75.72990875794537 L 203.5 75.29966418235936 L 207.25 75.14983209117969 Z " class="even" fill="#ffffff"></path><path d="M 202.75 75.96740526445389 C 202.8875 75.98533236900425 203.01466763099575 76.1125 203.03259473554613 76.25 C 203.05052184009648 76.3875 202.03802184009646 77.4 200.78259473554613 78.5 L 198.5 80.5 L 200.5 78.21740526445389 C 201.6 76.96197815990352 202.6125 75.94947815990352 202.75 75.96740526445389 Z " class="even" fill="#ffffff"></path><path d="M 227.5 77 C 230.05555555555554 77 231.8095238095238 77.80952380952381 234 80 C 235.65 81.65 237 83.9 237 85 C 237 86.11794892189077 236.44871807618173 86.84733714475982 235.75 86.6538457714548 C 235.0625 86.46346094575493 234.1711743181739 85.00096094575494 233.76927626260868 83.4038457714548 C 233.36737820704346 81.80673059715465 232.24237820704346 79.92985754364746 231.26927626260868 79.23301676366101 C 230.2961743181739 78.53617598367457 228.375 77.95811255284751 227 77.94843136182311 C 225.625 77.93875017079871 223.15 78.89037570520418 221.5 80.06315477161304 L 218.5 82.19548034690189 L 221.25 79.59774017345094 C 223.13260426719697 77.81937045141177 225.10395820538568 77 227.5 77 Z " class="even" fill="#ffffff"></path><path d="M 207.75 78.98301676366101 C 208.9875 78.99235754364746 210.675 79.675 211.5 80.5 C 212.325 81.325 213.00573932227272 82.5625 213.01275404949496 83.25 C 213.02233771392227 84.18927662260539 211.7172995288649 84.30948433662324 207.76275404949496 83.7335801019615 C 204.86823932227273 83.31204915804031 202.275 82.71274222776454 202 82.40178692357088 C 201.725 82.09083161937721 202.4 81.190578117142 203.5 80.4012235852704 C 204.6 79.61186905339879 206.5125 78.97367598367457 207.75 78.98301676366101 Z " class="even" fill="#ffffff"></path><path d="M 227.75 80.95547464893012 C 229.2625 80.93098570584169 231.0625 81.60598570584169 231.75 82.45547464893012 C 232.4375 83.30496359201855 232.8875 84.57873576090863 232.75 85.28607946868586 C 232.55313604803752 86.29881021565915 231.3467693835955 86.35194626369665 227.0741607675147 85.53607946868586 L 221.64832153502942 84.5 L 223.3241607675147 82.75 C 224.24587234538163 81.7875 226.2375 80.97996359201855 227.75 80.95547464893012 Z " class="even" fill="#ffffff"></path><path d="M 137.5 84.06255323440031 C 138.6 84.10546274435156 140.4 84.47983909718205 141.5 84.89450068513476 L 143.5 85.64843084504876 L 141.75 86.32421542252439 C 140.772090856069 86.70184737546207 139.0073117564827 86.3347965072095 137.75 85.49226797178994 L 135.5 83.98453594357987 L 137.5 84.06255323440031 Z " class="even" fill="#ffffff"></path><path d="M 137.25 86.95547464893012 C 137.6625 86.97996359201855 138.02003640798145 87.3375 138.04452535106986 87.75 C 138.0690142941583 88.1625 137.38359592976786 89.175 136.5213734302022 90 C 135.65915093063654 90.825 134.6266145226551 91.17291836439045 134.2268480791323 90.77315192086768 C 133.82708163560955 90.3733854773449 134.175 89.34084906936346 135 88.4786265697978 C 135.825 87.61640407023214 136.8375 86.93098570584169 137.25 86.95547464893012 Z " class="even" fill="#ffffff"></path><path d="M 130.6553915205488 91 C 130.92901475158743 91.825 130.33098843579796 93.31911420444214 129.32644415212772 94.32025378764922 L 127.5 96.14050757529843 L 126.75 94.07025378764922 C 126.3375 92.93161420444214 125.4375 91.99652058730547 124.75 91.99226797178994 C 124.0625 91.9880153562744 122.375 92.75403951076905 121 93.69454387066693 L 118.5 95.40455179775401 L 120 93.64640122111845 C 120.825 92.67941840396891 122.175 91.67562899294947 123 91.41575808551973 C 123.825 91.15588717808998 125.7375 91.40603078308132 127.25 91.97163276327828 C 129.586504549989 92.84537266424552 130.01187068277542 92.73686653181119 130.07894736842104 91.25 C 130.1402314739155 89.89153566153975 130.26920201245497 89.8356019956055 130.6553915205488 91 Z " class="even" fill="#ffffff"></path><path d="M 152.25 92.16810311365504 C 152.6625 92.07564640114477 153 92.225 153 92.5 C 153 92.775 152.4967684244603 94.2375 151.88170760991179 95.75 C 151.26664679536327 97.2625 150.60224368116783 100.075 150.40525624503306 102 C 150.20826880889828 103.925 149.24900038443798 106.07363307472252 148.27354863512127 106.77474016605004 C 147.29809688580457 107.47584725737755 145.9375 107.81334725737756 145.25 107.52474016605004 C 144.5625 107.23613307472252 144 107.45 144 108 C 144 108.55 142.5375 108.99310925146732 140.75 108.98468722548293 C 138.9625 108.97626519949856 136.96477249316328 108.63876519949855 136.31060554036287 108.23468722548293 C 135.6083113715144 107.80088114020695 135.1149049265856 105.0427817734886 135.10581280456435 101.5 L 135.090414528403 95.5 L 139.2952072642015 94.26008252119708 C 141.60784326889066 93.57812790785547 145.3 92.86627430900023 147.5 92.67818563485211 C 149.7 92.490096960704 151.8375 92.2605598261653 152.25 92.16810311365504 Z " class="even" fill="#ffffff"></path><path d="M 125 94 C 125.55 94 125.88041322392341 94.7875 125.7342516087187 95.75 C 125.58808999351398 96.7125 124.68808999351397 97.6125 123.7342516087187 97.75 C 122.31432212535057 97.95468908263219 122.18124366947124 97.63751266105753 123 96 C 123.55 94.9 124.45 94 125 94 Z " class="even" fill="#ffffff"></path><path d="M 192 94.62747849377578 C 203.275 94.86826929788911 216.8466734502516 95.61309196574503 222.15927433389243 96.28263997790002 C 227.47187521753324 96.95218799005501 232.19687521753323 97.86350112750925 232.65927433389243 98.3077802833539 C 233.1216734502516 98.75205943919856 231.527541308228 106.85205943919856 229.11675846272888 116.3077802833539 C 226.70597561722977 125.76350112750926 224.180421595506 135.075 223.50441619223164 137 C 222.6875421970924 139.32613886372272 221.47452156889258 140.6901296937179 219.88765772950276 141.0668932273565 L 217.5 141.63378645471298 L 185.84293870379202 141.0668932273565 L 154.18587740758406 140.5 L 152.4883816329612 130 L 150.79088585833836 119.5 L 156.23529996181423 109.5 C 159.22972771872597 104 162.31427840059985 98.50196613204955 163.08985703264506 97.28214696011011 C 163.97476523549042 95.8903757758128 165.80364205498375 94.90141001196208 168 94.62698547598586 C 169.925 94.38646583165698 180.725 94.38668768966244 192 94.62747849377578 Z " class="even" fill="#ffffff"></path><path d="M 117.54960317460316 99 C 117.88244047619047 99.275 117.93046679197994 100.175 117.656328320802 101 C 117.30916288864292 102.04476938351837 117.12550503410999 101.89302584469115 117.05116959064327 100.5 C 116.99247076023391 99.4 117.21676587301587 98.725 117.54960317460316 99 Z " class="even" fill="#ffffff"></path><path d="M 146.92874067158408 99.5 C 144.46733388202318 99.5 144.00244343189175 99.89892050409026 144.01531277451704 102 C 144.0274479775072 103.98122211239726 144.23178156102136 104.18873326743835 145 103 C 145.80671527589 101.75169712526535 145.9851911223023 101.83559616702047 146.063634593904 103.5 C 146.13145709864546 104.93904947791118 146.31258818677279 105.07928710843339 146.70943518056845 104 C 147.0127824246179 103.175 147.84518941104128 101.825 148.55922848373143 101 C 149.67348412753637 99.71259019107217 149.4424003171862 99.5 146.92874067158408 99.5 Z " class="odd" fill="#000000"></path><path d="M 139.75 101.01531277451707 C 138.2375 101.00689074853268 137 101.45 137 102 C 137 102.55 137.5625 102.99310925146732 138.25 102.98468722548293 C 138.9375 102.97626519949856 140.175 102.53315594803124 141 102 C 142.16887470455964 101.24461515001306 141.89293695835937 101.02724525104348 139.75 101.01531277451707 Z " class="odd" fill="#000000"></path><path d="M 130.0881914131429 103.73391053958312 C 130.4116966903715 104.1552597428124 131.70167599039945 107.425 132.95481207987172 111 C 134.20794816934395 114.575 135.88545552264316 118.175 136.68260619831443 119 C 137.87520803022232 120.23426667172491 137.98741469574955 122.42942160210204 137.31598553158562 131.39111562309205 L 136.5 142.2822312461841 L 127.5 145.56554399318767 C 122.55 147.37136600403963 115.125 150.20008670326044 111 151.85158999145614 L 103.5 154.85432324272102 L 103.202341971663 139.6771616213605 L 102.90468394332599 124.5 L 108.952341971663 118.75 C 112.27855388724835 115.5875 118.2625 110.7427597428124 122.25 107.98391053958312 C 126.2375 105.22506133635383 129.7646861359143 103.31256133635382 130.0881914131429 103.73391053958312 Z " class="even" fill="#ffffff"></path><path d="M 155.38987955786882 147.35034869763 L 164.27975911573765 147.5 L 169.38987955786882 153.3233823842707 L 174.5 159.14676476854137 L 173.13406851585273 167.8233823842707 C 172.38280619957172 172.59552207292182 170.46893373190764 181.675 168.88101858771032 188 C 166.54084996317238 197.32138383105138 165.42260500183477 200.0683346527692 162.97827296474517 202.5 L 159.96264578577515 205.5 L 139.2313228928876 205.5 L 118.5 205.5 L 114.5 190.35908608594548 L 110.5 175.21817217189093 L 107.5 174.14542556837762 C 105.34878474013391 173.37618928056182 103.74696900349592 171.57702420357901 101.83843826038176 167.78633948243214 L 99.17687652076353 162.5 L 104.33843826038176 160.2703623613599 C 107.1772972171718 159.04406166010781 112.0875 157.13156166010782 115.25 156.0203623613599 C 118.4125 154.90916306261195 121.45 154.225 122 154.5 C 122.55 154.775 123 154.55 123 154 C 123 153.45 126.0375 152.08436800151696 129.75 150.96526222559328 C 133.4625 149.8461564496696 138.75 148.54131336360308 141.5 148.0656109232233 C 144.25 147.5899084828435 150.50044580104097 147.26804048132652 155.38987955786882 147.35034869763 Z " class="even" fill="#ffffff"></path><path d="M 183.25 148.07376085589897 C 190.5375 148.1143293266434 203.25 148.53060473570508 211.5 148.99881732048047 C 219.75 149.46702990525586 228.075 150.04033541515528 230 150.2728295647014 C 231.925 150.50532371424754 238.675 153.1799482922105 245 156.2164397379524 C 253.4730687963425 160.28417110858905 256.8290142612671 162.42993023750586 257.75 164.36866663783252 L 259 167 L 254.75 171.61807434837357 L 250.5 176.2361486967471 L 247.25 174.61807434837357 C 245.4625 173.7281334567681 243.4375 173.0188619892124 242.75 173.04191553158313 C 242.0625 173.06496907395385 243.075 173.92940293149172 245 174.9628796594451 C 247.45131633662882 176.27892037983872 248.0505641442695 176.99709051617123 247 177.35978500369671 C 246.175 177.64460621508175 242.125 178.7579055153796 238 179.83378344880305 C 232.8012585866834 181.1897134289635 229.73291380443888 181.5183205224851 228 180.90474227788627 C 226.625 180.4178917004586 221 179.10881510107396 215.5 177.99568316814265 C 210 176.8825512352113 204.6 176.0156662442855 203.5 176.06927207719642 C 202.4 176.12287791010732 207.575 177.495924108469 215 179.1204858513335 C 222.425 180.745047594198 228.6197613420105 182.17003171791072 228.76613631557885 182.28711723736177 C 228.9125112891472 182.4042027568128 225.47963438035097 187.225 221.13752096269832 193 C 216.79540754504566 198.775 212.6256462030352 204.07109104371386 211.87138464711947 204.76909120825303 C 210.81262433566891 205.74887715359773 208.6762996321969 205.81679869732636 202.5 205.0670416607628 C 198.1 204.532914245104 191.125 203.7932412572103 187 203.42332390988787 L 179.5 202.7507469147562 L 179.77612240958757 200.6253734573781 L 180.05224481917514 198.5 L 178.77612240958757 200.7181171724291 C 178.07425508431442 201.93808161726508 176.15 203.18109632314744 174.5 203.4803720743899 C 172.85 203.7796478256323 170.4875 204.01899509803923 169.25 204.01225490196077 L 167 204 L 168.4239854127551 201.75 C 169.20717738977035 200.5125 171.01748913041862 195.45 172.44690039197343 190.5 C 173.87631165352826 185.55 175.93851266824652 176.55 177.0295693135696 170.5 C 178.12062595889267 164.45 179.0103142182444 159.1625 179.00665433435123 158.75 C 179.00299445045806 158.3375 176.975 155.75 174.5 153 L 170 148 L 183.25 148.07376085589897 Z " class="even" fill="#ffffff"></path><path d="M 154.75 151.13578048043598 C 152.4125 151.21045974467577 147.125 151.62514004647701 143 152.0572922622165 C 138.875 152.489444477956 133.7 153.12524470020537 131.5 153.47018164499286 C 128.33990862281783 153.96565085630854 126.82366645743046 154.97952307872274 124.27901369651144 158.29866986321233 C 121.90940088856867 161.38950129324527 121.0509348758075 163.5572829752473 121.0311943979537 166.5 C 121.01643625066562 168.7 121.55224049736422 176.8 122.22187050172835 184.5 C 123.25212367332053 196.3467651830997 123.75164635851019 198.78666081031832 125.4696898002861 200.36382428565489 L 127.5 202.22764857130977 L 141.25 201.61382428565489 C 151.72913628697194 201.14601713324538 155.70204924010176 200.58370825470553 157.95126238765312 199.25 L 160.90252477530626 197.5 L 162.9353281628882 187.5 C 164.05337002605827 182 165.42190258083977 174.575 165.97651161795824 171 C 166.53112065507668 167.425 167.00388083042787 163.6 167.0270897854053 162.5 C 167.05029874038274 161.4 165.25369811115735 158.3625 163.03464394268215 155.75 L 159 151 L 154.75 151.13578048043598 Z " class="odd" fill="#000000"></path><path d="M 227.75 151.50134210242078 C 227.6125 151.22708025875218 225.3715915795935 154.03958025875218 222.77020351020784 157.75134210242078 L 218.04040702041567 164.5 L 205.9145188095804 169 C 197.2371757946972 172.22022130569226 193.29552704854066 174.2109881635043 192.054763653007 176 C 191.101136832851 177.375 187.99869494813336 182.6625 185.16044835363442 187.75 C 182.32220175913548 192.8375 180.00863645337134 197.5625 180.01919211860297 198.25 C 180.02974778383458 198.9375 182.17962673434357 195.45 184.79670089751178 190.5 C 187.41377506068 185.55 190.5551386073087 180.0375 191.77750877890884 178.25 C 192.99987895050896 176.4625 194.675 175 195.5 175 C 196.325 175 196.98493359538912 174.6625 196.96651910086473 174.25 C 196.9481046063403 173.8375 201.7856046063403 171.74200236514346 207.71651910086473 169.59333858920772 L 218.5 165.68667717841544 L 225.5 167.90274900704406 C 229.35 169.1215885127898 232.592686913662 169.97958614764633 232.7059709192489 169.80941041783635 C 232.8192549248358 169.63923468802636 229.78175492483578 168.4875 225.9559709192489 167.25 L 219 165 L 223.5 158.5 C 225.975 154.925 227.8875 151.77560394608935 227.75 151.50134210242078 Z " class="odd" fill="#000000"></path><path d="M 144.25 153.16810311365504 C 146.44799659298988 153.03374308780604 146.88943593372784 153.3512748953701 146.44918604054396 154.75 C 146.14623836284312 155.7125 145.24163875094467 160.325 144.43896468076963 165 C 143.6362906105946 169.675 142.98145970197294 175.75 142.98378488383258 178.5 C 142.98611006569223 181.25 142.65320967759067 187.21599049856104 142.2440062436069 191.75775666346902 L 141.5 200.01551332693802 L 138.75 200.00775666346902 C 137.0410271741076 200.00293632634606 135.7630226241578 199.33752816193152 135.37399541551378 198.25 C 135.02969289404638 197.2875 134.46719289404638 186.97022317338826 134.12399541551378 175.32271816308503 L 133.5 154.14543632617008 L 137.5 153.74082127674006 C 139.7 153.51828299955358 142.7375 153.26055982616532 144.25 153.16810311365504 Z " class="even" fill="#ffffff"></path><path d="M 121.75 155.55594772778034 C 121.6125 155.31171897805953 120.27493707127005 156.99921897805953 118.77763793615566 159.30594772778034 C 117.23827271585517 161.6774831990248 116.09323847570496 164.80364383847603 116.14263701100553 166.5 L 116.22999814969975 169.5 L 116.89747496727585 166 C 117.26458721694272 164.075 118.56283763326027 161.0375 119.78247589242598 159.25 C 121.00211415159168 157.4625 121.8875 155.80017647750114 121.75 155.55594772778034 Z " class="odd" fill="#000000"></path><path d="M 294.25 156.0000539056225 C 294.6625 156.00002425753013 294.99189956202105 156.5625 294.9819990267134 157.25 C 294.9720984914058 157.9375 291.5970984914058 161.5375 287.4819990267134 165.25 L 280 172 L 278.5 169.5 C 277.675 168.125 276.9859730037562 166.6625 276.96882889723605 166.25 C 276.9516847907159 165.8375 280.66418479071586 163.3625242575301 285.21882889723605 160.7500539056225 C 289.77347300375624 158.13758355371488 293.8375 156.00008355371486 294.25 156.0000539056225 Z " class="even" fill="#ffffff"></path><path d="M 117.6801204614377 171 C 117.43365569316971 170.175 117.24108401746156 171.3 117.25218340430848 173.5 C 117.26421778708463 175.88532474564954 117.44510895180805 176.49082796603096 117.70030116479575 175 C 117.93566654621681 173.625 117.92658522970568 171.825 117.6801204614377 171 Z " class="odd" fill="#000000"></path><path d="M 234.5 170.15729680595155 C 233.95 170.16012433117118 234.85 170.78059249957354 236.5 171.53611495795684 C 238.15 172.2916374163401 240.175 172.89585385366192 241 172.8788181520053 C 241.825 172.86178245034867 240.925 172.2413142819463 239 171.5 C 237.075 170.7586857180537 235.05 170.1544692807319 234.5 170.15729680595155 Z " class="odd" fill="#000000"></path><path d="M 200.5 175.05116959064327 C 199.10697415530885 175.12550503410998 198.95523061648163 175.30916288864293 200 175.656328320802 C 200.825 175.93046679197994 201.725 175.88244047619048 202 175.5496031746032 C 202.275 175.21676587301587 201.6 174.99247076023394 200.5 175.05116959064327 Z " class="odd" fill="#000000"></path><path d="M 118.6801204614377 180 C 118.43365569316971 179.175 118.24108401746156 180.3 118.25218340430848 182.5 C 118.26421778708463 184.88532474564954 118.44510895180805 185.49082796603096 118.70030116479575 184 C 118.93566654621681 182.625 118.92658522970568 180.825 118.6801204614377 180 Z " class="odd" fill="#000000"></path><path d="M 20 180 C 20.55 180 22.575 182.7 24.5 186 C 26.425 189.3 28.020036407981447 193.0125 28.04452535106988 194.25 C 28.084480138247542 196.2690356502444 27.92593334118493 196.3460237668296 26.5 195 C 25.371646596436168 193.93487973475823 24.923858079769097 193.86239977896517 24.95547464893012 194.75 C 24.979963592018553 195.4375 25.45 196.225 26 196.5 C 26.55 196.775 27.01466763099575 197.7875 27.03259473554611 198.75 L 27.065189471092218 200.5 L 25 198.5 C 23.86414579089928 197.4 22.93481052890778 196.95 22.93481052890778 197.5 C 22.93481052890778 198.05 23.85180042715317 199.4 24.97256585834198 200.5 C 26.3374518644033 201.8395975329779 26.926066844930926 203.5516628468628 26.755160593888093 205.68491495528468 L 26.5 208.86982991056936 L 24.664762160249886 207.18491495528468 C 23.655381348387323 206.2582117298781 21.967881348387323 204.0375 20.914762160249886 202.25 C 19.742714951802753 200.26063886338966 19.2825635563683 198.3211944581748 19.728465213048974 197.25 C 20.17091360970741 196.1871013463889 20.07275627450899 195.75711461781398 19.478465213048974 196.15485329571715 C 18.87584883709153 196.55816382182078 18.531055954164717 194.63755983877084 18.58084944746236 191.15485329571715 C 18.625316643566656 188.04468398307273 18.737816643566656 184.2625 18.83084944746236 182.75 C 18.923882251358062 181.2375 19.45 180 20 180 Z " class="even" fill="#ffffff"></path><path d="M 20.182906289046187 186.5 C 19.565757384561607 185.4 19.044914320754224 184.95 19.025477258363118 185.5 C 19.006040195972012 186.05 20.117356287316674 188.1875 21.495068572462372 190.25 C 22.872780857608067 192.3125 24.225 194 24.5 194 C 24.775 194 24.168623921415445 192.7625 23.152497603145438 191.25 C 22.13637128487543 189.7375 20.800055193530767 187.6 20.182906289046187 186.5 Z " class="odd" fill="#000000"></path><path d="M 371.25 184.98493036528734 C 372.18749886485995 184.97362815293775 372.300317031029 186.16113246647 371.7012710254577 189.73493036528734 C 371.2619700894594 192.3557186643793 370.72817191562496 196.525 370.51505286138115 199 C 370.3019338071374 201.475 369.7328796157291 205.3 369.2504879915848 207.5 C 368.7680963674406 209.7 367.72689454127504 212.95506286819383 366.93670615566134 214.73347304043074 C 365.9640619578532 216.92252107864724 363.8849795728077 218.80262709254515 360.5 220.55416107088033 C 357.75 221.9771293153907 356.4 222.42692399084433 357.5 221.55370479411062 C 358.98032874650517 220.3785670859969 359.1102465598789 219.97646109076246 358 220.00616491180915 C 356.8081769532163 220.03805125109656 356.6624582851345 219.3738237471485 357.2907386492031 216.77314814814815 C 357.7256449062648 214.97291666666666 358.62564490626477 213.16939074853266 359.2907386492031 212.76531277451704 C 360.2226630230048 212.19912174220042 360.2133198534663 212.0271136542802 359.25 212.01531277451704 C 358.35544273120973 212.00435425151738 358 209.72516652025757 358 204 L 358 196 L 364 190.5 C 367.3 187.475 370.5625 184.9932186643793 371.25 184.98493036528734 Z " class="even" fill="#ffffff"></path><path d="M 119.68932551368576 189.5 C 119.43779796668133 188.4 119.23200270095045 189.075 119.23200270095045 191 C 119.23200270095045 192.925 119.43779796668133 193.825 119.68932551368576 193 L 120.14664832642106 191.5 L 119.68932551368576 189.5 Z " class="odd" fill="#000000"></path><path d="M 20.048800069567402 192 C 19.4888040832741 191.175 19.03374093101641 190.95 19.037548620105873 191.5 C 19.04135630919534 192.05 19.964667304984 193.625 21.089350832969572 195 C 22.447567393196103 196.66050957788673 22.787141755664546 196.8284076623094 22.100602282431097 195.5 C 21.53210705164937 194.4 20.608796055860704 192.825 20.048800069567402 192 Z " class="odd" fill="#000000"></path><path d="M 120.73821602264184 198 L 120.32007414518777 194.5 L 120.1600370725939 197.75 C 120.07201668266725 199.5375 120.45 201.9 121 203 C 121.55 204.1 122.5625 205.01466763099575 123.25 205.03259473554613 C 124.08407314691142 205.05434385046587 123.94371578541296 204.47204625614185 122.82817895004796 203.28259473554613 C 121.90867737257433 202.30216763099574 120.96819405524158 199.925 120.73821602264184 198 Z " class="odd" fill="#000000"></path><path d="M 22.831619564080306 201 L 19.744520487385994 197.5 L 21.622260243693 200.82688417484184 C 22.65501710966185 202.65667047100482 24.082536407981447 204.68167047100482 24.79452535106988 205.32688417484184 C 25.521828445413735 205.98597576308777 26.051733496972446 206.06182993538346 26.003884671457193 205.5 C 25.957043354581778 204.95 24.52952405626218 202.925 22.831619564080306 201 Z " class="odd" fill="#000000"></path><path d="M 361 203 C 360.45 203 359.775 203.45 359.5 204 C 359.225 204.55 359.675 204.775 360.5 204.5 C 361.325 204.225 362 203.775 362 203.5 C 362 203.225 361.55 203 361 203 Z " class="odd" fill="#000000"></path><path d="M 179 206 C 184.7298089711686 206 187.00187522860205 206.3547173482549 187.00660817905884 207.25 C 187.0102426775412 207.9375 186.51510561992254 211.875 185.90630360657292 216 L 184.79939085502818 223.5 L 174.89969542751408 228.75 C 169.45486294238134 231.6375 164.74186516994465 233.8875 164.4263670443214 233.75 C 164.1108689186982 233.6125 164.63478261073925 229.9 165.5906196933015 225.5 C 167.05253746914633 218.77036130835788 167.45897969003948 217.89698790886183 168.15015747657063 220 C 168.78418595288503 221.92912674249408 168.87946464503733 221.5866027879905 168.56740723778978 218.5 C 168.34498590822457 216.3 168.80132873580882 212.5875 169.58150241019922 210.25 L 171 206 L 179 206 Z " class="even" fill="#ffffff"></path><path d="M 122.75 209.07894736842104 C 123.4375 209.03552631578947 124.02003640798145 209.7875 124.04452535106988 210.75 C 124.06901429415831 211.7125 123.37397788617687 213.175 122.5 214 C 121.57579304112808 214.87241422595335 120.92957828247083 217.06896443511664 120.95547464893012 219.25 C 120.97996359201855 221.3125 121.45 223.225 122 223.5 C 122.64015583408688 223.82007791704345 122.73011687556516 222.73393538701276 122.25 220.48163084769058 C 121.70618517315121 217.93050909921956 121.84364195525201 216.96831162451392 122.75 216.98163084769058 C 123.4375 216.99173388146076 123.775 216.55 123.5 216 C 123.225 215.45 123.3375 214.99310587892882 123.75 214.98467973095296 C 124.1625 214.97625358297708 124.80580665229789 216.88875358297707 125.17957033843973 219.23467973095296 C 125.55333402458159 221.58060587892882 125.43528499190974 223.95 124.91723915472451 224.5 C 124.32001659694058 225.13406050817028 124.54505292176059 226.04890923774457 125.53219416735465 227 C 126.38846526148646 227.825 127.07612656022877 228.95 127.060330386782 229.5 C 127.04453421333523 230.05 125.21738553928334 228.7 123 226.5 L 118.96838992857577 222.5 L 118.9841949642879 216.25 C 118.99455480814765 212.15326619294333 119.43065323858868 209.8549378564754 120.25 209.57894736842104 C 120.9375 209.34736842105264 122.0625 209.12236842105264 122.75 209.07894736842104 Z " class="even" fill="#ffffff"></path><path d="M 362 210 C 361.45 210 360.775 210.45 360.5 211 C 360.225 211.55 360.45 212 361 212 C 361.55 212 362.225 211.55 362.5 211 C 362.775 210.45 362.55 210 362 210 Z " class="odd" fill="#000000"></path><path d="M 130.5 211.45383722450745 C 133.25 211.72518474547448 140.7875 212.18407717399228 147.25 212.4735981767692 L 159 213 L 158.51042452178115 215.75 C 158.2411580087608 217.2625 157.34296760121745 222.775 156.5144458383515 228 C 155.68592407548556 233.225 155.01387549703657 239.075 155.02100455290932 241 C 155.02813360878207 242.925 154.46382401632542 245.29309271982876 153.76698323633897 246.26242826628615 C 152.93888862090284 247.41434355256982 149.45243833107764 248.6267590992811 143.70230199112717 249.76242826628615 C 135.91578335700012 251.3002890418038 134.79411141887297 251.32759477984024 133.94327088040023 250 C 133.41453767438045 249.175 132.31979852979003 246.25 131.51051722575482 243.5 C 130.70123592171964 240.75 129.01779992154675 232.30360757148222 127.76954833648176 224.73023904773822 L 125.5 210.96047809547647 L 130.5 211.45383722450745 Z " class="even" fill="#ffffff"></path><path d="M 175.25 210.96740526445387 C 173.7375 210.94947815990352 171.72387519315023 211.73697815990352 170.7752782070005 212.71740526445387 C 169.8266812208508 213.69783236900426 169.0391812208508 214.8375 169.0252782070005 215.25 C 169.01137519315023 215.6625 169.9 215.1 171 214 C 172.1 212.9 174.0125 211.97996359201855 175.25 211.95547464893014 C 176.4875 211.9309857058417 178.175 212.69334187650404 179 213.6495994726242 C 179.825 214.60585706874437 180.7914373337258 216.76339347672584 181.14763851939068 218.4441248236941 C 181.72711694205782 221.17838733899274 181.80968988248057 221.23688989041426 181.93222392122857 219 C 182.00754470657455 217.625 181.15360737284874 215.2625 180.0345854018379 213.75 C 178.6910416073501 211.9340303034201 177.0659696965799 210.98892928337017 175.25 210.96740526445387 Z " class="odd" fill="#000000"></path><path d="M 170.49226797178994 223.75 C 169.6630153562744 222.5125 168.97334772527867 221.95 168.95967323624382 222.5 C 168.945998747209 223.05 169.73697815990352 224.27612480684977 170.71740526445387 225.2247217929995 C 171.69783236900426 226.1733187791492 173.625 226.97548641014495 175 227.0073165285456 C 176.40832102510342 227.03991800125482 178.37334317991727 226.0684451986901 179.5 224.78259473554613 L 181.5 222.5 L 179.5 224.2247217929995 C 178.4 225.1733187791492 176.2625 225.9608187791492 174.75 225.9747217929995 C 172.99230183586624 225.99087868683128 171.4559544510592 225.1881166797458 170.49226797178994 223.75 Z " class="odd" fill="#000000"></path><path d="M 191.25 226.03289870487703 C 196.85303060477136 226.00559019372395 198.0784020911975 226.2973624358 198.46140212440247 227.75 C 198.71517329282383 228.7125 200.74642375465447 235.8 202.9752920395817 243.5 C 205.2041603245089 251.2 207.0190197480466 258.175 207.0083129807765 259 C 206.99760621350646 259.825 206.5413557516758 262.1875 205.9944230655973 264.25 C 205.23423539637446 267.116691107847 204.35224014575445 268.1663472503143 202.25 268.7062106973226 L 199.5 269.41242139464515 L 202.45027084838574 269.9562106973226 C 205.0644354970788 270.4380494316119 205.72196190195663 271.3544288396688 208.2219019165684 278 C 209.77365003745672 282.125 210.69602815568314 285.7821857015491 210.27163106818267 286.12707933677575 C 209.8472339806822 286.47197297200245 207.1375 287.48447297200244 204.25 288.37707933677575 C 201.3625 289.2696857015491 198.55 289.775 198 289.5 C 197.45 289.225 196.87802656453457 289.7875 196.72894792118797 290.75 C 196.57986927784134 291.7125 195.07261023532683 288.675 193.37948338226687 284 C 190.81281329728878 276.9130043472015 190.52540024685072 275.2922052430586 191.6505354610789 274.25 C 192.3927409574855 273.5625 194.6875 272.3567078780354 196.75 271.5704619511898 C 198.8125 270.78421602434423 199.825 270.1017643353833 199 270.0539026423877 C 198.175 270.0060409493922 195.925 270.46958142130256 194 271.08399257996643 C 191.42194779263562 271.9068414339003 190.23658634496127 271.9068131543728 189.5 271.0838852221019 C 188.95 270.4694150166126 188.05 269.959499035671 187.5 269.9507385977872 C 186.95 269.9419781599035 187.4 270.8641457908993 188.5 272 C 189.6 273.13585420910067 190.05 274.03800285248616 189.5 274.0047747630788 C 188.95 273.97154667367136 186.82885140340247 272.7193790426756 184.7863364520055 271.22218002753266 C 181.76450196126984 269.00712274221877 181.29876977503525 268.2397155860156 182.2863364520055 267.10282141927564 C 183.26219903885828 265.9794010888769 183.20609528291266 265.8113570366547 182 266.2451758502246 C 180.85700737043896 266.6562973540562 179.32724805971878 263.7757663875308 175.5725725682952 254.14235443094893 C 172.8624874808575 247.189059493927 170.0499874808575 240.0375 169.3225725682952 238.25 L 168 235 L 176.25 230.53289870487703 C 183.6608250832904 226.52018278639264 185.18659765912602 226.06245101364195 191.25 226.03289870487703 Z " class="even" fill="#ffffff"></path><path d="M 122.50231105664093 231 C 123.74989754140533 232.375 126.18660421894575 237.775 127.91721478450853 243 L 131.06377944916812 252.5 L 130.02043783362606 259 C 129.32527067638955 263.330879219928 128.23006833800494 266.27992205832624 126.738548109042 267.8371189957216 C 124.94020753789414 269.7146466184829 123.81172960884504 270.06296251036963 121 269.6083787175843 C 119.075 269.29715611696184 116.92985754364746 268.2454525688871 116.23301676366103 267.27125972186263 C 115.53617598367458 266.2970668748382 114.97367598367458 263.8125 114.98301676366103 261.75 C 114.99235754364746 259.6875 115.9404854162026 251.8125 117.08996759156136 244.25 C 118.2394497669201 236.6875 119.41709346544252 230.05 119.70695358827783 229.5 C 119.99681371111315 228.95 121.25472457187655 229.625 122.50231105664093 231 Z " class="even" fill="#ffffff"></path><path d="M 180 259 C 179.46684405196876 258.175 179.0306255490341 257.95 179.0306255490341 258.5 C 179.0306255490341 259.05 179.46684405196876 260.175 180 261 C 180.53315594803124 261.825 180.9693744509659 262.05 180.9693744509659 261.5 C 180.9693744509659 260.95 180.53315594803124 259.825 180 259 Z " class="odd" fill="#000000"></path><path d="M 183.75 266.95547464893014 C 183.3375 266.9799635920185 183 267.225 183 267.5 C 183 267.775 184.0125 268.5236739077623 185.25 269.16371979502736 L 187.5 270.3274395900547 L 186 268.61919444395744 C 185.175 267.679659613604 184.1625 266.9309857058417 183.75 266.95547464893014 Z " class="odd" fill="#000000"></path><path d="M 120.5 273 L 123 273 L 123.00749754316159 277.75 C 123.01162119190046 280.3625 122.67412119190047 284.66064634302154 122.25749754316159 287.30143631782573 C 121.62029566387426 291.3403725132192 121.18238665600902 292.05500253719896 119.5 291.80143631782573 C 118.23059297811476 291.61011362857613 117.53044137408811 290.76940702188523 117.58333333333334 289.5 C 117.62916666666668 288.4 117.74166666666667 284.2375 117.83333333333334 280.25 L 118 273 L 120.5 273 Z " class="even" fill="#ffffff"></path><path d="M 195 282 C 194.46684405196876 281.175 194.0553631686761 280.95 194.08559803712745 281.5 C 194.11583290557877 282.05 194.52731378887142 283.4 195 284.5 C 195.56668211788792 285.8187402445872 195.87815474667568 285.9890551834404 195.91440196287255 285 C 195.9446368313239 284.175 195.53315594803124 282.825 195 282 Z " class="odd" fill="#000000"></path><path d="M 224.75 286.0535815235669 C 228.19814877798973 286.0101092729763 229.70751578412668 286.6313208896109 232.75 289.34614914487474 C 234.8125 291.1865311745558 237.26746545417902 294.2240311745558 238.20547878706446 296.09614914487474 C 239.1434921199499 297.9682671151936 240.38099211994992 301.8625 240.95547878706446 304.75 C 241.529965454179 307.6375 241.6625 311.1501991037098 241.25 312.55599800824393 C 240.6824678134273 314.4901461929028 238.5536766567753 316.05348806236657 232.5 318.9818239118624 C 228.1 321.11022925431837 221.125 323.77729670021387 217 324.9086404582969 C 212.875 326.03998421637993 207.475 327.34071780683 205 327.7991595481859 L 200.5 328.63268998701494 L 200.3398695595674 323.56634499350747 C 200.25179781732948 320.7798552470784 199.41105468370623 316.25 198.47155148484904 313.5 C 197.53204828599186 310.75 195.91660698418653 307.2625 194.88168192528164 305.75 C 193.84675686637675 304.2375 192.7790080097171 303.1125 192.50890668826025 303.25 C 192.2388053668034 303.3875 193.44357010365636 306.2 195.18616165904461 309.5 C 197.47189387151917 313.8285624091558 198.51406120353545 317.3826486953879 198.92725497078436 322.25818961725156 C 199.35502334741855 327.3057057965134 199.18359251240472 329.01430622952796 198.25 329.00818961725156 C 197.5625 329.0036853277632 196.67051671753106 328.4375 196.26781492784679 327.75 C 195.8651131381625 327.0625 195.25347224589743 324.25 194.90861294503546 321.5 L 194.28159603437734 316.5 L 194.14079801718867 320.75 L 194 325 L 191.5 325 C 189.38163693874253 325 188.91081789243535 324.4275445918862 188.4157922195733 321.25 C 188.09447794033858 319.1875 187.41947794033857 316.0375 186.9157922195733 314.25 C 186.412106498808 312.4625 185.55 310.775 185 310.5 C 184.42052536592917 310.2102626829646 184.009235578293 311.57697012223434 184.02196200049093 313.75 C 184.03404110076093 315.8125 184.8876831900008 319.3 185.918944421024 321.5 C 186.9502056520472 323.7 187.5028227518263 326.10337201871357 187.1469824205331 326.84082670825234 C 186.67464721852883 327.8197090302376 185.88783161876736 327.41479721273043 184.23221592419264 325.34082670825234 C 182.9849346824986 323.7783720187135 181.5224346824986 320.3625 180.98221592419264 317.75 C 180.44199716588668 315.1375 180 312.1 180 311 C 180 309.9 180.7875 308.5636839086553 181.75 308.03040868590074 C 182.7125 307.49713346314616 183.05 307.0671698711276 182.5 307.0749340369706 C 181.95 307.0826982028137 182.175 306.37629909514334 183 305.5051582421477 C 183.9534633447088 304.4983693071055 185.22871554038827 304.17203801561 186.5 304.6095240106568 C 188.23092028882814 305.20518407648973 188.3318251805176 305.075940666053 187.25 303.64889111957905 C 186.2459651355243 302.3244557821537 186.26088909424536 301.5572627560563 187.32584387259413 299.75 C 188.14108944011707 298.3665018635734 191.8959308489351 296.16390054756994 197.07584387259413 294.0306205394987 C 201.70912974266736 292.122461836223 208.875 289.5590735218281 213 288.3342020630656 C 217.125 287.10933060430307 222.4125 286.08305136152865 224.75 286.0535815235669 Z " class="even" fill="#ffffff"></path><path d="M 239.9098154871955 293 C 241.0347625171842 294.375 242.6402596357424 296.9625 243.47758686176928 298.75 C 244.31491408779618 300.5375 244.95314770621852 303.4625 244.8958837915967 305.25 L 244.79176758319338 308.5 L 243.3822926317576 303.5 C 242.6070814084679 300.75 241.0484365836912 296.7 239.9186374655871 294.5 L 237.8644572508524 290.5 L 239.9098154871955 293 Z " class="even" fill="#ffffff"></path><path d="M 106.75 293.07894736842104 C 107.9875 293.03552631578947 115.075 294.125 122.5 295.5 C 129.925 296.875 137.13796457076967 298.5625 138.52881015726592 299.25 C 139.91965574376215 299.9375 141.04465574376215 300.8375 141.02881015726592 301.25 C 141.01296457076967 301.6625 139.425 302.675 137.5 303.5 C 135.575 304.325 133.13713124191722 306.2375 132.08251387092716 307.75 C 131.0278964999371 309.2625 129.5653964999371 312.63878928458746 128.83251387092716 315.2528650768611 C 127.84090724141365 318.78976823578984 127.75583766807353 321.28047425628927 128.5 324.98835883450226 L 129.5 329.9709875152824 L 123.75 329.98549375764117 C 120.5875 329.9934721909385 115.6375 329.51800702965147 112.75 328.92890451033657 C 109.8625 328.3398019910217 104.6875 326.9898019910217 101.25 325.92890451033657 C 97.04006087796705 324.6296132206195 94.60865566869124 323.26557808393187 93.80106417553719 321.75 C 93.14164947208266 320.5125 92.6049985710877 316.35 92.60850661777064 312.5 C 92.61260477283432 308.00236971704345 93.18802805542418 304.4275558355528 94.21816603408104 302.5 C 95.09997066636882 300.85 97.09912156736378 298.31864179812817 98.6607235918476 296.8747595513959 C 100.22232561633142 295.4308773046637 102.175 294.0039036204532 103 293.70370691981697 C 103.825 293.40351021918076 105.5125 293.1223684210526 106.75 293.07894736842104 Z " class="even" fill="#ffffff"></path><path d="M 190 300 C 189.45 300 188.97996359201855 300.1125 188.95547464893014 300.25 C 188.9309857058417 300.3875 189.64782010285379 301.175 190.54843997562367 302 C 192.0166458927092 303.34492910740494 192.12462954506157 303.3190839586391 191.59296532669356 301.75 C 191.2668343970121 300.7875 190.55 300 190 300 Z " class="odd" fill="#000000"></path><path d="M 189 305.5 C 188.45 305.225 188.675 306.125 189.5 307.5 C 190.325 308.875 191.225 310 191.5 310 C 191.775 310 191.55 309.1 191 308 C 190.45 306.9 189.55 305.775 189 305.5 Z " class="odd" fill="#000000"></path><path d="M 146.5 308.8113995080166 C 148.15 309.6567432375873 150.5125 311.39500078310795 151.75 312.67419405361807 C 153.40543615609155 314.3854043894818 154 316.1891276878169 154 319.5 C 154 322.8333333333333 153.35185185185185 324.77777777777777 151.5 327 C 149.94444444444446 328.8666666666667 148.05555555555554 330 146.5 330 L 144 330 L 147 326.5 C 148.88888888888889 324.2962962962963 150 321.8888888888889 150 320 C 150 318.35 149.2125 315.4154435252829 148.25 313.47876338951755 C 147.2875 311.54208325375214 146.275 309.9555118655102 146 309.95304919342425 C 145.725 309.9505865213384 144.48313116574394 310.97264299605547 143.24029147943094 312.22428580390675 C 141.99745179311796 313.47592861175804 140.55579821728483 316.3 140.03661686646842 318.5 C 139.517435515652 320.7 139.35724337699943 323.625 139.6806343361294 325 C 140.00402529525937 326.375 140.99567887109248 328.3302763017919 141.88430894909192 329.34505844842647 L 143.5 331.19011689685294 L 140.59077913509333 330.84505844842647 C 138.35151885439106 330.5794630488462 137.22089566745495 329.5788453468267 135.68118796908783 326.5 C 133.91582929348377 322.96993624203606 133.81517017950816 321.91257969745493 134.8243984306646 317.5 C 135.45336785013615 314.75 136.9876838748386 311.5447763457735 138.23398959667009 310.3772807683857 C 139.48029531850153 309.2097851909978 141.175 308.0340276454772 142 307.7644862227843 C 142.825 307.4949448000914 144.85 307.966055778446 146.5 308.8113995080166 Z " class="even" fill="#ffffff"></path><path d="M 193 312 C 192.46684405196876 311.175 192.0553631686761 310.95 192.08559803712745 311.5 C 192.11583290557877 312.05 192.52731378887142 313.4 193 314.5 C 193.56668211788792 315.8187402445872 193.87815474667568 315.9890551834404 193.91440196287255 315 C 193.9446368313239 314.175 193.53315594803124 312.825 193 312 Z " class="odd" fill="#000000"></path><path d="M 234 333.0381451748205 C 234.8517449978689 333.0004979659139 236.10128878125755 334.5985664051224 236.8913246622414 336.73592251696596 C 237.65655322647416 338.80616513263465 238.46190415607313 340.95 238.68099339468358 341.5 C 238.90008263329403 342.05 234.11063518073948 344.3 228.0377768334513 346.5 C 221.96491848616307 348.7 216.84524649283082 350.275 216.66072795937964 350 C 216.47620942592843 349.725 215.56464463690574 347.475 214.6350284282181 345 C 213.70541221953044 342.525 213.0697332832637 340.4142183732081 213.22240856984754 340.3093741626846 C 213.3750838564314 340.2045299521611 217.775 338.54053014819567 223 336.61159682053915 C 228.225 334.6826634928827 233.175 333.07461025230924 234 333.0381451748205 Z " class="even" fill="#ffffff"></path><path d="M 106.5 337 C 107.325 337 110.025 337.45 112.5 338 L 117 339 L 117 343 C 117 345.8888888888889 116.58333333333333 347 115.5 347 C 114.675 347 111.97051504648462 346.4375 109.4900334366325 345.75 L 104.980066873265 344.5 L 104.9900334366325 340.75 C 104.99710899785556 338.0877629170522 105.43510516682089 337 106.5 337 Z " class="even" fill="#ffffff"></path><path d="M 256.7447411964025 355.3810161828232 C 256.87934885442394 355.44645728227044 257.66688069782873 358.65 258.49481195952427 362.5 C 259.4468827590323 366.92726678854854 259.632582202517 369.59188332898043 259.0000707631217 369.75 C 258.45003184340476 369.8875 258.675 370.675 259.5 371.5 C 260.325 372.325 260.8875 373.7234088162563 260.75 374.60757514723633 C 260.6007534438504 375.56727536514313 257.88041045988945 377.2206317286553 254 378.71005616507375 C 250.425 380.0822543939044 244.2375 382.28384557764804 240.25 383.6024810178375 L 233 386 L 228.5 379 C 226.025 375.15 224.15362451337998 371.4375 224.3413878075111 370.75 C 224.5291511016422 370.0625 231.84165110164219 366.29645728227047 240.5913878075111 362.3810161828232 C 249.34112451338 358.46557508337594 256.61013353838115 355.31557508337596 256.7447411964025 355.3810161828232 Z " class="even" fill="#ffffff"></path><path d="M 96.75 356.0070060353645 C 98.2625 356.01085935481495 103.325 356.9408496267221 108 358.0736510840471 C 112.675 359.20645254137213 116.95 360.3960464568847 117.5 360.7171931185194 C 118.09657856348814 361.06553714409586 117.89486784523221 361.7460977987801 117 362.4041650865155 C 116.175 363.0108530072786 115.35648700277055 364.18060637585205 115.18108222837898 365.00361701667873 C 115.00567745398743 365.82662765750547 113.76817745398743 368.4125 112.43108222837898 370.75 L 110 375 L 106.75 374.4901859504132 L 103.5 373.98037190082647 L 106.25 374.9901859504132 C 107.7625 375.54558367768595 109 376.45 109 377 C 109 377.55 108.75974105864496 378.5625 108.46609124143325 379.25 C 108.0564214630549 380.2091287177 105.78762546111501 379.9547000143655 98.71609124143325 378.1566095605819 C 93.64724105864497 376.86774481890194 89.11971867319987 375.5177448189019 88.65493038488859 375.1566095605819 C 88.19014209657732 374.7954743022619 88.61703901997242 372.25 89.6035902146555 369.5 C 90.59014140933857 366.75 91.6454227361387 364.275 91.94865982976691 364 C 92.25189692339511 363.725 92.52509632516688 363.05 92.55576961148196 362.5 C 92.58644289779706 361.95 92.92394289779705 360.2625 93.30576961148196 358.75 C 93.85299925190448 356.5823024516769 94.58230245167695 356.00148350238885 96.75 356.0070060353645 Z " class="even" fill="#ffffff"></path><path d="M 108.5 361.05116959064327 C 107.10697415530883 361.12550503410995 106.95523061648161 361.3091628886429 108 361.656328320802 C 108.825 361.93046679197994 109.725 361.8824404761905 110 361.5496031746032 C 110.275 361.2167658730159 109.6 360.9924707602339 108.5 361.05116959064327 Z " class="odd" fill="#000000"></path><path d="M 112.5 362.05116959064327 C 111.10697415530883 362.12550503410995 110.95523061648161 362.3091628886429 112 362.656328320802 C 112.825 362.93046679197994 113.725 362.8824404761905 114 362.5496031746032 C 114.275 362.2167658730159 113.6 361.9924707602339 112.5 362.05116959064327 Z " class="odd" fill="#000000"></path><path d="M 254.25 364.07894736842104 C 253.8375 364.1223684210526 251.475 364.83218984962406 249 365.656328320802 C 246.525 366.48046679197995 244.725 367.33858100769265 245 367.56324880016354 C 245.275 367.7879165926344 247.6375 367.303095164063 250.25 366.4858678477826 C 252.8625 365.66864053150215 255 364.775 255 364.5 C 255 364.225 254.6625 364.03552631578947 254.25 364.07894736842104 Z " class="odd" fill="#000000"></path><path d="M 234.5 371.05116959064327 C 233.10697415530882 371.12550503410995 232.95523061648163 371.3091628886429 234 371.656328320802 C 234.825 371.93046679197994 235.725 371.8824404761905 236 371.5496031746032 C 236.275 371.2167658730159 235.6 370.9924707602339 234.5 371.05116959064327 Z " class="odd" fill="#000000"></path><path d="M 102.5 373.05116959064327 C 101.10697415530883 373.12550503410995 100.95523061648161 373.3091628886429 102 373.656328320802 C 102.825 373.93046679197994 103.725 373.8824404761905 104 373.5496031746032 C 104.275 373.2167658730159 103.6 372.9924707602339 102.5 373.05116959064327 Z " class="odd" fill="#000000"></path><path d="M 251.5 373.03062554903414 C 250.95 373.03062554903414 249.825 373.4668440519688 249 374 C 248.175 374.5331559480312 247.95 374.96937445096586 248.5 374.96937445096586 C 249.05 374.96937445096586 250.175 374.5331559480312 251 374 C 251.825 373.4668440519688 252.05 373.03062554903414 251.5 373.03062554903414 Z " class="odd" fill="#000000"></path><path d="M 246.5 375.03062554903414 C 245.95 375.03062554903414 244.825 375.4668440519688 244 376 C 243.175 376.5331559480312 242.95 376.96937445096586 243.5 376.96937445096586 C 244.05 376.96937445096586 245.175 376.5331559480312 246 376 C 246.825 375.4668440519688 247.05 375.03062554903414 246.5 375.03062554903414 Z " class="odd" fill="#000000"></path><path d="M 237.5 378.15729680595155 C 236.95 378.1544692807319 234.925 378.7586857180537 233 379.5 C 231.075 380.2413142819463 230.175 380.8617824503487 231 380.8788181520053 C 231.825 380.8958538536619 233.85 380.2916374163401 235.5 379.5361149579568 C 237.15 378.7805924995735 238.05 378.1601243311711 237.5 378.15729680595155 Z " class="odd" fill="#000000"></path></g></svg>